<svg class="message__icon" xmlns="http://www.w3.org/2000/svg" viewBox="0 0 1000 1000" xml:space="preserve"><path d="M984.3 155.2 855 53.1c-4-3.3-9-5.7-14.6-5.7-5.7 0-10.8 2.4-14.8 5.9L355 658S170 480.1 164.8 474.9c-5.2-5.2-12-13.9-22.4-13.9-10.4 0-15.1 7.3-20.5 12.7-4 4.2-70 73.5-102.5 107.9-1.9 2.1-3.1 3.3-4.7 4.9-2.8 4-4.7 8.5-4.7 13.4 0 5.2 1.9 9.4 4.7 13.4l6.6 6.1S349.5 934.7 355 940.1c5.4 5.4 12 12.3 21.7 12.3 9.4 0 17.2-10.1 21.7-14.6l587-754c2.8-4 4.7-8.5 4.7-13.7-.1-5.8-2.5-10.7-5.8-14.9z"/></svg>
