<svg class="message__icon" xmlns="http://www.w3.org/2000/svg" viewBox="0 0 1000 1000" xml:space="preserve"><path d="M500 10C229.7 10 10 229.7 10 500s219.7 490 490 490 490-219.7 490-490S770.3 10 500 10zm274.6 650.5c31.2 31.2 31.2 82.9 0 114.2-16.2 16.2-36.6 23.7-57.1 23.7s-40.9-7.5-57.1-23.7L500 614.2 339.5 774.6c-16.2 16.2-36.6 23.7-57.1 23.7s-40.9-7.5-57.1-23.7c-31.2-31.2-31.2-82.9 0-114.2L385.8 500 225.4 339.5c-31.2-31.2-31.2-82.9 0-114.2 31.2-31.2 82.9-31.2 114.2 0L500 385.8l160.5-160.5c31.2-31.2 82.9-31.2 114.2 0 31.2 31.2 31.2 82.9 0 114.2L614.2 500l160.4 160.5z"/></svg>
